Coordinates
version=1
nRows=19
nColumns=18
inDegrees=yes

Units are S.I. units (second, meters, Newtons, ...)
If the header above contains a line with 'inDegrees', this indicates whether rotational values are in degrees (yes) or radians (no).

endheader
time	TH_x	TH_y	TH_z	TH_transx	TH_transy	TH_transz	SC_y	SC_z	SC_x	AC_y	AC_z	AC_x	GH_y	GH_z	GH_yy	EL_x	PS_y
  18068.00000000	    164.08496027	    103.34774723	   -179.30841764	     -0.08702049	      0.18850702	      1.43227982	    -51.56939239	     17.21180343	     12.84289839	     44.62401241	     19.99999998	    -17.00000001	     71.34331862	    -18.67462829	    -42.89543630	     79.57164547	    160.02711218
  18101.00000000	    163.45770718	    103.80861611	   -178.67023059	     -0.08918311	      0.18871336	      1.43228615	    -51.30902972	     18.09435969	     12.69177885	     43.71601598	     18.80596260	    -16.32105858	     70.49238622	    -20.99819404	    -44.83469597	     71.63634647	    160.02711218
  18135.00000000	    164.31434662	    105.34826647	   -179.25859365	     -0.08722632	      0.19006794	      1.43074721	    -51.36340484	     17.39021206	     12.33574992	     45.42988209	     19.84037160	    -16.77431218	     72.77282110	    -20.31411158	    -43.33282626	     69.52467974	    160.02711218
  18168.00000000	    163.97107655	    105.67620773	   -179.40913812	     -0.08637972	      0.18818566	      1.42905519	    -51.53240779	     17.56077048	     11.92404713	     45.40269661	     19.99999998	    -17.00000001	     72.95742688	    -20.91378180	    -43.31604864	     68.70077322	    160.02711218
  18201.00000000	    164.39219542	    106.54846196	   -179.03845896	     -0.08894228	      0.18707607	      1.42260534	    -52.45746522	     17.67231497	     11.74377667	     47.12735390	     19.99999998	    -17.00000001	     74.26529851	    -23.21642787	    -44.80927135	     61.78988221	    160.02711218
  18235.00000000	    165.52117379	    107.40682034	   -179.85124640	     -0.08973959	      0.18602638	      1.42196272	    -51.96674931	     17.50104509	     12.51353112	     48.25191205	     19.65871550	    -17.00000001	     74.74023212	    -27.88367563	    -49.72005674	     65.30672319	    160.02711218
  18268.00000000	    165.26998998	    107.36309627	   -179.58301739	     -0.09075898	      0.18721221	      1.42239710	    -52.12820246	     18.28803008	     11.90666883	     47.81693828	     19.42811606	    -16.93931322	     74.55666878	    -28.94235472	    -49.87580829	     65.04044043	    160.02711218
  18301.00000000	    164.90346655	    107.28086945	   -179.48315815	     -0.09051123	      0.18786872	      1.42380600	    -52.14547595	     18.12324786	     11.15358580	     48.17192722	     19.16969005	    -16.11986779	     75.12937466	    -29.65759221	    -49.47741394	     61.42250861	    160.02711218
  18335.00000000	    163.96443667	    108.55849260	   -178.50786514	     -0.09053833	      0.18556848	      1.41895734	    -51.82524882	     17.53929481	     10.15995780	     47.88377028	     19.84448407	    -16.86451603	     75.71782252	    -30.00007015	    -49.61939520	     62.64579222	    160.02711218
  18368.00000000	    163.44232100	    109.25078865	   -178.33795084	     -0.09155702	      0.18508150	      1.41771233	    -52.00872207	     18.03739807	      9.94605027	     47.14502937	     19.89500439	    -17.00000001	     75.29493052	    -30.00007015	    -49.96017183	     63.63145411	    160.02711218
  18401.00000000	    160.59666994	    112.41019668	   -174.42684145	     -0.09181513	      0.17762074	      1.41120900	    -51.47939305	     17.75907001	      8.89320510	     46.18249450	     19.24516658	    -15.84005661	     75.86729345	    -28.62218689	    -48.90940029	     60.48188781	    160.02711218
  18435.00000000	    160.48597707	    112.13961235	   -174.49240901	     -0.09190033	      0.17937800	      1.41136143	    -51.23034338	     17.30408233	      8.45757086	     46.08218458	     18.89653237	    -16.22351149	     75.91044506	    -29.13931810	    -48.78964362	     59.64663417	    160.02711218
  18468.00000000	    160.00600848	    111.61732158	   -174.31215204	     -0.09118610	      0.17825536	      1.41211843	    -51.13703958	     17.56214801	      7.70843133	     46.20110318	     17.74141401	    -15.82640136	     76.17338274	    -29.47068496	    -48.04598185	     58.17941363	    160.02711218
  18501.00000000	    159.93606838	    111.69339356	   -174.38144644	     -0.09110692	      0.17772001	      1.41215965	    -51.23489086	     17.52448220	      7.61096448	     46.16400025	     17.65159269	    -15.88249606	     76.17108688	    -29.54508479	    -48.01204510	     58.17757375	    160.02711218
  18535.00000000	    158.46145388	    111.87684165	   -172.95280485	     -0.09184605	      0.17465649	      1.41281191	    -50.85850961	     16.91888853	      7.16584809	     46.24642271	     17.47617275	    -16.48740874	     76.24350945	    -29.91227892	    -48.05526393	     59.77995759	    160.02711218
  18568.00000000	    159.67412195	    111.13832992	   -174.56208680	     -0.09066704	      0.17575807	      1.41464906	    -50.71164637	     17.45966954	      6.73835658	     45.68762324	     17.02486554	    -16.63019094	     76.06341444	    -29.86611534	    -47.90784233	     58.45662777	    160.02711218
  18601.00000000	    159.70335964	    111.58680427	   -174.55964583	     -0.09125210	      0.17711426	      1.41342183	    -50.60967705	     17.10486041	      6.80071894	     45.42651023	     17.27243209	    -17.00000001	     75.95835776	    -29.93616490	    -48.07954493	     60.33820471	    160.02711218
  18635.00000000	    159.70370671	    111.58628393	   -174.55931546	     -0.09127487	      0.17710751	      1.41341583	    -50.60919579	     17.10421247	      6.80070631	     45.42668693	     17.27220655	    -16.99983093	     75.95850994	    -29.93604230	    -48.07931752	     60.33833555	    160.02711218
  18668.00000000	    160.03483716	    111.48637729	   -174.84726598	     -0.08959985	      0.17568962	      1.41383719	    -50.67742957	     17.52154173	      6.84497527	     44.61019015	     17.28527351	    -17.00000001	     75.17414951	    -30.00007015	    -48.69284652	     62.53909570	    160.02711218
